<svg xmlns="http://www.w3.org/2000/svg" fill-rule="evenodd" stroke-linecap="round" stroke-linejoin="round" stroke-miterlimit="1.5" clip-rule="evenodd" viewBox="0 0 1024 512">
  <g transform="translate(41.8345 -10)">
    <path fill="url(#_Linear1)" d="M590.166 356.237h-120c-66.23 0-120-53.77-120-120 0-66.23 53.77-120 120-120 20.471 0 0 120 0 120 25.77 11.714 52.705 34.644 60 93.309 15.322-32.269 35.464-34.773 60-37.132v63.823z"/>
    <path fill="url(#_Linear2)" d="M470.166 116.237c66.229.001 119.998 53.769 120 120h-120v-120z"/>
    <path fill="none" d="M590.166 236.237h-240c0-66.23 53.77-120 120-120l.775.003c65.873.418 119.223 54.025 119.225 119.997z"/>
    <clipPath id="a">
      <path d="M590.166 236.237h-240c0-66.23 53.77-120 120-120l.775.003c65.873.418 119.223 54.025 119.225 119.997z"/>
    </clipPath>
    <g clip-path="url(#a)">
      <path d="M399.165 164.3704h46.1734v29.25c0 8.6927-7.0572 15.7498-15.7498 15.7498h-14.6738c-8.6926 0-15.7498-7.0571-15.7498-15.7498v-29.25z"/>
      <path fill="none" stroke="#000" stroke-width="13.23" d="M838.271 385.474h166.499" transform="matrix(-1.25363 0 0 1 1625.37 -224.179)"/>
    </g>
  </g>
  <g fill-rule="nonzero">
    <path fill="url(#_Linear4)" d="M796.251 160.369h-5.712l-1.872 10.512h-8.64l6.096-34.56h14.64c3.616 0 6.192.832 7.728 2.496 1.12 1.28 1.68 2.912 1.68 4.896 0 .672-.064 1.376-.192 2.112l-.96 5.424c-.48 2.656-1.888 4.84-4.224 6.552-2.336 1.712-5.184 2.568-8.544 2.568zm1.488-16.56h-4.32l-1.584 9.072h4.272c2.624 0 4.144-1.168 4.56-3.504l.336-1.968c.064-.288.096-.672.096-1.152 0-.48-.24-1.008-.72-1.584-.48-.576-1.36-.864-2.64-.864z" transform="translate(-2400.82 -153.318) scale(3.24191)"/>
    <path fill="url(#_Linear5)" d="M823.227 147.121c3.456 0 6.064.752 7.824 2.256 1.376 1.184 2.064 2.832 2.064 4.944 0 .704-.08 1.472-.24 2.304l-1.008 5.616c-.608 3.392-2.024 5.792-4.248 7.2-2.224 1.408-5.192 2.112-8.904 2.112-3.712 0-6.432-.704-8.16-2.112-1.28-1.056-1.92-2.64-1.92-4.752 0-.736.08-1.552.24-2.448l1.008-5.616c1.12-6.336 5.568-9.504 13.344-9.504zm1.296 10.464c.064-.32.096-.728.096-1.224s-.208-1.048-.624-1.656c-.416-.608-1.144-.912-2.184-.912-1.04 0-1.912.344-2.616 1.032-.704.688-1.152 1.608-1.344 2.76l-.624 3.6c-.064.32-.096.728-.096 1.224s.208 1.032.624 1.608c.416.576 1.144.864 2.184.864 1.04 0 1.912-.36 2.616-1.08.704-.72 1.152-1.592 1.344-2.616l.624-3.6z" transform="translate(-2400.82 -153.318) scale(3.24191)"/>
    <path fill="url(#_Linear6)" d="M842.955 163.489c0 .832.424 1.248 1.272 1.248.848 0 1.56-.16 2.136-.48l-.24 5.424c-1.536 1.248-3.264 1.872-5.184 1.872-2.912 0-4.8-.672-5.664-2.016-.544-.864-.816-1.808-.816-2.832 0-1.024.064-1.92.192-2.688l5.232-29.568h8.16l-5.04 28.464a3.498 3.498 0 0 0-.048.576z" transform="translate(-2400.82 -153.318) scale(3.24191)"/>
    <path fill="url(#_Linear7)" d="M856.587 160.561a10.494 10.494 0 0 0-.144 1.728c0 1.536.864 2.304 2.592 2.304 1.408 0 2.576-.496 3.504-1.488l2.688-15.312h8.16l-4.224 23.856c-.704 4.064-2.312 7.28-4.824 9.648-2.512 2.368-5.384 3.552-8.616 3.552-3.232 0-5.56-.592-6.984-1.776-1.424-1.184-2.136-2.736-2.136-4.656 0-2.72 1.68-5.136 5.04-7.248-1.824-.448-2.976-1.36-3.456-2.736-.288-.768-.432-1.632-.432-2.592 0-.96.08-1.936.24-2.928l2.688-15.12h8.16l-2.256 12.768zm.24 17.424c2.08 0 3.44-1.888 4.08-5.664l.48-2.784c-4.448 2.08-6.672 4.176-6.672 6.288 0 .64.184 1.16.552 1.56.368.4.888.6 1.56.6z" transform="translate(-2400.82 -153.318) scale(3.24191)"/>
    <path fill="url(#_Linear8)" d="M912.603 164.737c.736 0 1.392-.16 1.968-.48l-.24 5.424c-1.504 1.248-3.216 1.872-5.136 1.872-4.352 0-6.528-1.824-6.528-5.472 0-.64.064-1.328.192-2.064l1.008-5.904c.096-.576.144-1.152.144-1.728 0-1.536-.84-2.304-2.52-2.304-1.68 0-3 .656-3.96 1.968l-2.592 14.832h-8.16l2.256-12.768c.096-.576.144-1.152.144-1.728 0-1.536-.864-2.304-2.592-2.304-1.376 0-2.56.528-3.552 1.584l-2.688 15.216h-8.16l4.08-23.088h7.584l-.528 2.88c1.92-2.368 4.352-3.552 7.296-3.552 4.16 0 6.528 1.376 7.104 4.128 1.92-2.752 4.488-4.128 7.704-4.128 3.216 0 5.304.72 6.264 2.16.64.992.96 2.08.96 3.264 0 1.184-.08 2.256-.24 3.216l-1.2 7.152c-.032.192-.048.368-.048.528 0 .864.48 1.296 1.44 1.296z" transform="translate(-2400.82 -153.318) scale(3.24191)"/>
    <path fill="url(#_Linear9)" d="M929.835 147.121c3.456 0 6.064.752 7.824 2.256 1.376 1.184 2.064 2.832 2.064 4.944 0 .704-.08 1.472-.24 2.304l-1.008 5.616c-.608 3.392-2.024 5.792-4.248 7.2-2.224 1.408-5.192 2.112-8.904 2.112-3.712 0-6.432-.704-8.16-2.112-1.28-1.056-1.92-2.64-1.92-4.752 0-.736.08-1.552.24-2.448l1.008-5.616c1.12-6.336 5.568-9.504 13.344-9.504zm1.296 10.464c.064-.32.096-.728.096-1.224s-.208-1.048-.624-1.656c-.416-.608-1.144-.912-2.184-.912-1.04 0-1.912.344-2.616 1.032-.704.688-1.152 1.608-1.344 2.76l-.624 3.6c-.064.32-.096.728-.096 1.224s.208 1.032.624 1.608c.416.576 1.144.864 2.184.864 1.04 0 1.912-.36 2.616-1.08.704-.72 1.152-1.592 1.344-2.616l.624-3.6z" transform="translate(-2400.82 -153.318) scale(3.24191)"/>
    <path fill="url(#_Linear10)" d="M963.915 152.689c0 1.088-.184 2.144-.552 3.168-.368 1.024-.728 1.776-1.08 2.256l-.528.672h-7.248c.8-.736 1.2-1.648 1.2-2.736 0-.576-.184-1.048-.552-1.416-.368-.368-.872-.552-1.512-.552-1.088 0-2.032.544-2.832 1.632l-2.688 15.168h-8.16l4.08-23.088h7.584l-.576 3.216c1.824-2.592 4.032-3.888 6.624-3.888 2.08 0 3.64.496 4.68 1.488 1.04.992 1.56 2.352 1.56 4.08z" transform="translate(-2400.82 -153.318) scale(3.24191)"/>
    <path fill="url(#_Linear11)" d="M980.043 147.169c3.264 0 5.52.864 6.768 2.592.896 1.184 1.344 2.688 1.344 4.512 0 .736-.08 1.52-.24 2.352l-.96 5.616c-.544 3.04-1.712 5.352-3.504 6.936-1.792 1.584-4.032 2.376-6.72 2.376-2.688 0-4.56-.72-5.616-2.16l-2.592 14.832h-8.16l6.432-36.432h7.392l-.24 1.296c1.504-1.28 3.536-1.92 6.096-1.92zm-4.992 17.472c.896 0 1.728-.288 2.496-.864.768-.576 1.248-1.44 1.44-2.592l.624-3.6c.064-.32.096-.72.096-1.2s-.208-.992-.624-1.536c-.416-.544-1.136-.816-2.16-.816-1.664 0-2.752.4-3.264 1.2l-1.44 8.064c.448.896 1.392 1.344 2.832 1.344z" transform="translate(-2400.82 -153.318) scale(3.24191)"/>
    <path fill="url(#_Linear12)" d="M1014.03 164.737c.73 0 1.39-.16 1.97-.48l-.25 5.424c-1.5 1.248-3.21 1.872-5.13 1.872-4.35 0-6.53-1.824-6.53-5.472 0-.64.06-1.328.19-2.064l1.06-5.904c.1-.576.14-1.152.14-1.728 0-1.536-.8-2.304-2.42-2.304-1.62 0-2.87.544-3.769 1.632l-2.688 15.168h-8.16l6.432-36.432h8.155l-2.73 15.504c1.76-1.888 3.97-2.832 6.62-2.832 3.23 0 5.33.72 6.29 2.16.67.96 1.01 2.032 1.01 3.216 0 1.184-.1 2.272-.29 3.264l-1.3 7.152c-.03.192-.04.368-.04.528 0 .864.48 1.296 1.44 1.296z" transform="translate(-2400.82 -153.318) scale(3.24191)"/>
  </g>
  <defs>
    <linearGradient id="_Linear1" x2="1" gradientTransform="matrix(10 251.304 -251.304 10 436.424 116.237)" gradientUnits="userSpaceOnUse">
      <stop offset="0" stop-color="#a2e0b0"/>
      <stop offset=".54" stop-color="#42d08e"/>
      <stop offset=".77" stop-color="#38c391"/>
      <stop offset="1" stop-color="#199c9a"/>
    </linearGradient>
    <linearGradient id="_Linear2" x2="1" gradientTransform="scale(129.957) rotate(76.101 1.3985 2.964)" gradientUnits="userSpaceOnUse">
      <stop offset="0" stop-color="#f8da44"/>
      <stop offset=".56" stop-color="#f5d037"/>
      <stop offset="1" stop-color="#e8ab05"/>
    </linearGradient>
    <linearGradient id="_Linear4" x2="1" gradientTransform="rotate(90.5004 349.8584 496.253) scale(39.03129)" gradientUnits="userSpaceOnUse">
      <stop offset="0" stop-color="#ff7100"/>
      <stop offset="1" stop-color="#be3030"/>
    </linearGradient>
    <linearGradient id="_Linear5" x2="1" gradientTransform="rotate(90.5004 349.8584 496.253) scale(39.03129)" gradientUnits="userSpaceOnUse">
      <stop offset="0" stop-color="#ff7100"/>
      <stop offset="1" stop-color="#be3030"/>
    </linearGradient>
    <linearGradient id="_Linear6" x2="1" gradientTransform="rotate(90.5004 349.8584 496.253) scale(39.03129)" gradientUnits="userSpaceOnUse">
      <stop offset="0" stop-color="#ff7100"/>
      <stop offset="1" stop-color="#be3030"/>
    </linearGradient>
    <linearGradient id="_Linear7" x2="1" gradientTransform="rotate(90.5004 349.8584 496.253) scale(39.03129)" gradientUnits="userSpaceOnUse">
      <stop offset="0" stop-color="#ff7100"/>
      <stop offset="1" stop-color="#be3030"/>
    </linearGradient>
    <linearGradient id="_Linear8" x2="1" gradientTransform="rotate(90.5004 349.8584 496.253) scale(39.03129)" gradientUnits="userSpaceOnUse">
      <stop offset="0" stop-color="#ff7100"/>
      <stop offset="1" stop-color="#be3030"/>
    </linearGradient>
    <linearGradient id="_Linear9" x2="1" gradientTransform="rotate(90.5004 349.8584 496.253) scale(39.03129)" gradientUnits="userSpaceOnUse">
      <stop offset="0" stop-color="#ff7100"/>
      <stop offset="1" stop-color="#be3030"/>
    </linearGradient>
    <linearGradient id="_Linear10" x2="1" gradientTransform="rotate(90.5004 349.8584 496.253) scale(39.03129)" gradientUnits="userSpaceOnUse">
      <stop offset="0" stop-color="#ff7100"/>
      <stop offset="1" stop-color="#be3030"/>
    </linearGradient>
    <linearGradient id="_Linear11" x2="1" gradientTransform="rotate(90.5004 349.8584 496.253) scale(39.03129)" gradientUnits="userSpaceOnUse">
      <stop offset="0" stop-color="#ff7100"/>
      <stop offset="1" stop-color="#be3030"/>
    </linearGradient>
    <linearGradient id="_Linear12" x2="1" gradientTransform="rotate(90.5004 349.8584 496.253) scale(39.03129)" gradientUnits="userSpaceOnUse">
      <stop offset="0" stop-color="#ff7100"/>
      <stop offset="1" stop-color="#be3030"/>
    </linearGradient>
  </defs>
</svg>
