<svg xmlns="http://www.w3.org/2000/svg" width="512" height="512"><path d="M173.887 128.992c-4.123.012 1.404-.008.006.004l-.006-.004c-84.52.25-156.47 64.57-167.325 128.074C8.188 380.526 98.237 500.62 249.718 505.65c123.525 4.105 257.059-98.644 256.244-254.064l-.068.031C482.943 397.012 340.507 471.6 250.682 471.275c-119.58-.265-211.721-93.844-211.721-214.52h-.098c21.318-63.17 89.716-108.668 158.55-96.464 34.37 8.36 34.639 33.804 35.349 61.86-20.5.39-41.66-2.1-60.58-.424-53.395 8.195-88.7 26.169-89.65 81.529 1.35 42.74 33.134 75.18 71.794 75.715 43.525-.225 73.926-19.295 98.961-48.52l9-160.15c-22.393-33.131-46.494-41.191-88.4-41.309zm24.33 123.381c10.928-.002 21.784.494 32.045.158.255 19.078 2.04 38.052 8.105 54.99-28.725 22.835-74.53 48.92-105.804 23.075-14.33-15.705-15.762-42.19-1.952-56.785 19.171-19.013 43.564-21.433 67.606-21.438z" fill="#fd0"/><path d="M253.336 7.756c-114.07.06-246.759 92.475-246.774 249.31 32.5-146.995 125.019-208.174 243.649-216.43 128.355 4.246 220.596 118.22 225.086 211.905-17.74 64.255-71.225 91.56-121.91 94.115-48.985-1.84-81.806-32.434-79.856-95.449l161.48.85c.18-32.66-6.093-70.776-24.378-94.301-15.77-19.225-38.64-28.95-68.856-28.95-32.05 1.376-58.165 16.2-79.5 40.036l-9.441 161.16c27.58 28.475 66.866 43.985 101.326 44.215 78.915.005 138.355-57.41 151.73-122.6C504.187 115.706 391.016 7.685 253.336 7.755zm89.371 151.21c39.06 1.83 55.17 27.446 59.23 61.776H276.272c5.85-36.5 32.216-61.255 66.436-61.775z" fill="#ce222c"/></svg>