<?xml version="1.0" encoding="utf-8"?>
<!-- Generator: Adobe Illustrator 22.0.1, SVG Export Plug-In . SVG Version: 6.00 Build 0)  -->
<svg version="1.1" id="Layer_1" xmlns="http://www.w3.org/2000/svg" xmlns:xlink="http://www.w3.org/1999/xlink" x="0px" y="0px"
	 viewBox="0 0 1024 512" style="enable-background:new 0 0 1024 512;" xml:space="preserve">
<style type="text/css">
	.st0{fill:url(#body_1_);}
	.st1{fill:url(#beak_1_);}
	.st2{fill:url(#letterP_2_);}
	.st3{fill:url(#letterO_1_);}
	.st4{fill:url(#letterL_1_);}
	.st5{fill:url(#letterY_1_);}
	.st6{fill:url(#letterM_1_);}
	.st7{fill:url(#letterO2_1_);}
	.st8{fill:url(#letterR_1_);}
	.st9{fill:url(#letterP_3_);}
	.st10{fill:url(#letterH_1_);}
</style>
<g id="logo" transform="translate(41.8345 -10)">
	
		<linearGradient id="body_1_" gradientUnits="userSpaceOnUse" x1="-335.6026" y1="-1.0391" x2="-334.6026" y2="-1.0391" gradientTransform="matrix(10 251.304 -251.304 10 3559.1147 84463.8047)">
		<stop  offset="0" style="stop-color:#A2E0B0"/>
		<stop  offset="0.54" style="stop-color:#42D08E"/>
		<stop  offset="0.77" style="stop-color:#38C391"/>
		<stop  offset="1" style="stop-color:#199C9A"/>
	</linearGradient>
	<path id="body" class="st0" d="M590.2,356.2h-120c-66.2,0-120-53.8-120-120s53.8-120,120-120c20.5,0,0,120,0,120
		c25.8,11.7,52.7,34.6,60,93.3c15.3-32.3,35.5-34.8,60-37.1V356.2z"/>
	
		<linearGradient id="beak_1_" gradientUnits="userSpaceOnUse" x1="-333.39" y1="-0.8826" x2="-332.39" y2="-0.8826" gradientTransform="matrix(31.2171 126.1519 -126.1519 31.2171 10799.0186 42203.8477)">
		<stop  offset="0" style="stop-color:#F8DA44"/>
		<stop  offset="0.56" style="stop-color:#F5D037"/>
		<stop  offset="1" style="stop-color:#E8AB05"/>
	</linearGradient>
	<path id="beak" class="st1" d="M470.2,116.2c66.2,0,120,53.8,120,120h-120V116.2L470.2,116.2z"/>
	<path id="strap" d="M558.1,154.7h-176c-3.8,4.1-7.4,8.6-10.6,13.2h197.3C565.6,163.2,562,158.8,558.1,154.7z"/>
	<path id="eyepatch" d="M399.2,164.4h46.2v29.3c0,8.7-7.1,15.7-15.7,15.7H415c-8.7,0-15.7-7.1-15.7-15.7L399.2,164.4L399.2,164.4z"
		/>
</g>
<g id="word">
	
		<linearGradient id="letterP_2_" gradientUnits="userSpaceOnUse" x1="-249.9872" y1="-0.6591" x2="-248.9872" y2="-0.6591" gradientTransform="matrix(-1.1051 126.5311 -126.5311 -1.1051 -182.6525 31964.2754)">
		<stop  offset="0" style="stop-color:#FF7100"/>
		<stop  offset="1" style="stop-color:#BE3030"/>
	</linearGradient>
	<path id="letterP_1_" class="st2" d="M180.6,366.6H162l-6.1,34.1h-28l19.8-112h47.5c11.7,0,20.1,2.7,25.1,8.1
		c3.6,4.1,5.4,9.4,5.4,15.9c0,2.2-0.2,4.5-0.6,6.8l-3.1,17.6c-1.6,8.6-6.1,15.7-13.7,21.2C200.7,363.8,191.4,366.6,180.6,366.6
		L180.6,366.6z M185.4,312.9h-14l-5.1,29.4h13.8c8.5,0,13.4-3.8,14.8-11.4l1.1-6.4c0.2-0.9,0.3-2.2,0.3-3.7c0-1.6-0.8-3.3-2.3-5.1
		C192.4,313.8,189.5,312.9,185.4,312.9L185.4,312.9z"/>
	
		<linearGradient id="letterO_1_" gradientUnits="userSpaceOnUse" x1="-249.9872" y1="-1.3198" x2="-248.9872" y2="-1.3198" gradientTransform="matrix(-1.1051 126.5311 -126.5311 -1.1051 -182.6525 31964.2754)">
		<stop  offset="0" style="stop-color:#FF7100"/>
		<stop  offset="1" style="stop-color:#BE3030"/>
	</linearGradient>
	<path id="letterO" class="st3" d="M268,323.6c11.2,0,19.7,2.4,25.4,7.3c4.5,3.8,6.7,9.2,6.7,16c0,2.3-0.3,4.8-0.8,7.5l-3.3,18.2
		c-2,11-6.6,18.8-13.8,23.3c-7.2,4.6-16.8,6.8-28.9,6.8s-20.9-2.3-26.5-6.8c-4.1-3.4-6.2-8.6-6.2-15.4c0-2.4,0.3-5,0.8-7.9l3.3-18.2
		C228.4,333.9,242.8,323.6,268,323.6L268,323.6z M272.2,357.6c0.2-1,0.3-2.4,0.3-4s-0.7-3.4-2-5.4s-3.7-3-7.1-3s-6.2,1.1-8.5,3.3
		c-2.3,2.2-3.7,5.2-4.4,8.9l-2,11.7c-0.2,1-0.3,2.4-0.3,4s0.7,3.3,2,5.2c1.3,1.9,3.7,2.8,7.1,2.8s6.2-1.2,8.5-3.5s3.7-5.2,4.4-8.5
		L272.2,357.6L272.2,357.6z"/>
	
		<linearGradient id="letterL_1_" gradientUnits="userSpaceOnUse" x1="-249.9872" y1="-1.8402" x2="-248.9872" y2="-1.8402" gradientTransform="matrix(-1.1051 126.5311 -126.5311 -1.1051 -182.6525 31964.2754)">
		<stop  offset="0" style="stop-color:#FF7100"/>
		<stop  offset="1" style="stop-color:#BE3030"/>
	</linearGradient>
	<path id="letterL" class="st4" d="M332,376.7c0,2.7,1.4,4,4.1,4s5.1-0.5,6.9-1.6l-0.8,17.6c-5,4-10.6,6.1-16.8,6.1
		c-9.4,0-15.6-2.2-18.4-6.5c-1.8-2.8-2.6-5.9-2.6-9.2c0-3.3,0.2-6.2,0.6-8.7l17-95.9h26.5l-16.3,92.3C332,375.4,332,376.1,332,376.7
		L332,376.7z"/>
	
		<linearGradient id="letterY_1_" gradientUnits="userSpaceOnUse" x1="-249.9872" y1="-2.3242" x2="-248.9872" y2="-2.3242" gradientTransform="matrix(-1.1051 126.5311 -126.5311 -1.1051 -182.6525 31964.2754)">
		<stop  offset="0" style="stop-color:#FF7100"/>
		<stop  offset="1" style="stop-color:#BE3030"/>
	</linearGradient>
	<path id="letterY" class="st5" d="M376.2,367.2c-0.3,1.9-0.5,3.7-0.5,5.6c0,5,2.8,7.5,8.4,7.5c4.6,0,8.4-1.6,11.4-4.8l8.7-49.6
		h26.5L417,403.2c-2.3,13.2-7.5,23.6-15.6,31.3c-8.1,7.7-17.5,11.5-27.9,11.5c-10.5,0-18-1.9-22.6-5.8s-6.9-8.9-6.9-15.1
		c0-8.8,5.4-16.7,16.3-23.5c-5.9-1.5-9.6-4.4-11.2-8.9c-0.9-2.5-1.4-5.3-1.4-8.4s0.3-6.3,0.8-9.5l8.7-49h26.5L376.2,367.2
		L376.2,367.2z M376.9,423.7c6.7,0,11.2-6.1,13.2-18.4l1.6-9c-14.4,6.7-21.6,13.5-21.6,20.4c0,2.1,0.6,3.8,1.8,5.1
		C373.1,423,374.8,423.7,376.9,423.7z"/>
	
		<linearGradient id="letterM_1_" gradientUnits="userSpaceOnUse" x1="-249.9872" y1="-3.1795" x2="-248.9872" y2="-3.1795" gradientTransform="matrix(-1.1051 126.5311 -126.5311 -1.1051 -182.6525 31964.2754)">
		<stop  offset="0" style="stop-color:#FF7100"/>
		<stop  offset="1" style="stop-color:#BE3030"/>
	</linearGradient>
	<path id="letterM" class="st6" d="M557.8,380.7c2.4,0,4.5-0.5,6.4-1.6l-0.8,17.6c-4.9,4-10.4,6.1-16.7,6.1
		c-14.1,0-21.2-5.9-21.2-17.7c0-2.1,0.2-4.3,0.6-6.7l3.3-19.1c0.3-1.9,0.5-3.7,0.5-5.6c0-5-2.7-7.5-8.2-7.5c-5.4,0-9.7,2.1-12.8,6.4
		l-8.4,48.1H474l7.3-41.4c0.3-1.9,0.5-3.7,0.5-5.6c0-5-2.8-7.5-8.4-7.5c-4.5,0-8.3,1.7-11.5,5.1l-8.7,49.3h-26.5l13.2-74.8h24.6
		l-1.7,9.3c6.2-7.7,14.1-11.5,23.7-11.5c13.5,0,21.2,4.5,23,13.4c6.2-8.9,14.5-13.4,25-13.4c10.4,0,17.2,2.3,20.3,7
		c2.1,3.2,3.1,6.7,3.1,10.6s-0.3,7.3-0.8,10.4l-3.9,23.2c-0.1,0.6-0.2,1.2-0.2,1.7C553.1,379.3,554.6,380.7,557.8,380.7L557.8,380.7
		z"/>
	
		<linearGradient id="letterO2_1_" gradientUnits="userSpaceOnUse" x1="-249.9872" y1="-4.0509" x2="-248.9872" y2="-4.0509" gradientTransform="matrix(-1.1051 126.5311 -126.5311 -1.1051 -182.6525 31964.2754)">
		<stop  offset="0" style="stop-color:#FF7100"/>
		<stop  offset="1" style="stop-color:#BE3030"/>
	</linearGradient>
	<path id="letterO2" class="st7" d="M613.6,323.6c11.2,0,19.7,2.4,25.4,7.3c4.5,3.8,6.7,9.2,6.7,16c0,2.3-0.3,4.8-0.8,7.5l-3.3,18.2
		c-2,11-6.6,18.8-13.8,23.3c-7.2,4.6-16.8,6.8-28.9,6.8c-12,0-20.9-2.3-26.5-6.8c-4.1-3.4-6.2-8.6-6.2-15.4c0-2.4,0.3-5,0.8-7.9
		l3.3-18.2C574,333.9,588.4,323.6,613.6,323.6L613.6,323.6z M617.8,357.6c0.2-1,0.3-2.4,0.3-4s-0.7-3.4-2-5.4s-3.7-3-7.1-3
		c-3.4,0-6.2,1.1-8.5,3.3c-2.3,2.2-3.7,5.2-4.4,8.9l-2,11.7c-0.2,1-0.3,2.4-0.3,4s0.7,3.3,2,5.2c1.3,1.9,3.7,2.8,7.1,2.8
		c3.4,0,6.2-1.2,8.5-3.5s3.7-5.2,4.4-8.5L617.8,357.6L617.8,357.6z"/>
	
		<linearGradient id="letterR_1_" gradientUnits="userSpaceOnUse" x1="-249.9872" y1="-4.6781" x2="-248.9872" y2="-4.6781" gradientTransform="matrix(-1.1051 126.5311 -126.5311 -1.1051 -182.6525 31964.2754)">
		<stop  offset="0" style="stop-color:#FF7100"/>
		<stop  offset="1" style="stop-color:#BE3030"/>
	</linearGradient>
	<path id="letterR" class="st8" d="M724.1,341.7c0,3.5-0.6,7-1.8,10.3s-2.4,5.8-3.5,7.3l-1.7,2.2h-23.5c2.6-2.4,3.9-5.3,3.9-8.9
		c0-1.9-0.6-3.4-1.8-4.6s-2.8-1.8-4.9-1.8c-3.5,0-6.6,1.8-9.2,5.3l-8.7,49.2h-26.5l13.2-74.8h24.6l-1.9,10.4
		c5.9-8.4,13.1-12.6,21.5-12.6c6.7,0,11.8,1.6,15.2,4.8C722.4,331.7,724.1,336.1,724.1,341.7L724.1,341.7z"/>
	
		<linearGradient id="letterP_3_" gradientUnits="userSpaceOnUse" x1="-249.9872" y1="-5.2516" x2="-248.9872" y2="-5.2516" gradientTransform="matrix(-1.1051 126.5311 -126.5311 -1.1051 -182.6525 31964.2754)">
		<stop  offset="0" style="stop-color:#FF7100"/>
		<stop  offset="1" style="stop-color:#BE3030"/>
	</linearGradient>
	<path id="letterP" class="st9" d="M776.4,323.8c10.6,0,17.9,2.8,21.9,8.4c2.9,3.8,4.4,8.7,4.4,14.6c0,2.4-0.3,4.9-0.8,7.6
		l-3.1,18.2c-1.8,9.9-5.6,17.4-11.4,22.5c-5.8,5.1-13.1,7.7-21.8,7.7s-14.8-2.3-18.2-7l-8.4,48.1h-26.5l20.9-118.1h24l-0.8,4.2
		C761.5,325.9,768.1,323.8,776.4,323.8L776.4,323.8z M760.2,380.4c2.9,0,5.6-0.9,8.1-2.8s4-4.7,4.7-8.4l2-11.7
		c0.2-1,0.3-2.3,0.3-3.9s-0.7-3.2-2-5s-3.7-2.6-7-2.6c-5.4,0-8.9,1.3-10.6,3.9L751,376C752.5,379,755.5,380.4,760.2,380.4z"/>
	
		<linearGradient id="letterH_1_" gradientUnits="userSpaceOnUse" x1="-249.9872" y1="-5.9683" x2="-248.9872" y2="-5.9683" gradientTransform="matrix(-1.1051 126.5311 -126.5311 -1.1051 -182.6525 31964.2754)">
		<stop  offset="0" style="stop-color:#FF7100"/>
		<stop  offset="1" style="stop-color:#BE3030"/>
	</linearGradient>
	<path id="letterH" class="st10" d="M886.6,380.7c2.4,0,4.5-0.5,6.4-1.6l-0.8,17.6c-4.9,4-10.4,6.1-16.6,6.1
		c-14.1,0-21.2-5.9-21.2-17.7c0-2.1,0.2-4.3,0.6-6.7l3.4-19.1c0.3-1.9,0.5-3.7,0.5-5.6c0-5-2.6-7.5-7.8-7.5c-5.3,0-9.3,1.8-12.2,5.3
		l-8.7,49.2h-26.5l20.9-118.1H851l-8.9,50.3c5.7-6.1,12.9-9.2,21.5-9.2c10.5,0,17.3,2.3,20.4,7c2.2,3.1,3.3,6.6,3.3,10.4
		s-0.3,7.4-0.9,10.6l-4.2,23.2c-0.1,0.6-0.1,1.2-0.1,1.7C881.9,379.3,883.5,380.7,886.6,380.7L886.6,380.7z"/>
</g>
</svg>
